<?xml version="1.0" encoding="UTF-8"?>
<svg width="120" height="120" viewBox="0 0 120 120" xmlns="http://www.w3.org/2000/svg">
  <defs>
    <radialGradient id="particle" cx="50%" cy="50%" r="50%" fx="50%" fy="50%">
      <stop offset="0%" style="stop-color:#0ee0c8;stop-opacity:1" />
      <stop offset="100%" style="stop-color:#0ee0c8;stop-opacity:0" />
    </radialGradient>
  </defs>
  
  <!-- Fondo -->
  <rect width="120" height="120" fill="#f0f0f0" rx="6" ry="6"/>
  
  <!-- Partículas -->
  <circle cx="20" cy="20" r="2" fill="#0ee0c8" opacity="0.9"/>
  <circle cx="35" cy="35" r="1.8" fill="#0ee0c8" opacity="0.85"/>
  <circle cx="50" cy="25" r="2.2" fill="#0ee0c8" opacity="0.95"/>
  <circle cx="65" cy="40" r="1.7" fill="#0ee0c8" opacity="0.8"/>
  <circle cx="80" cy="30" r="2" fill="#0ee0c8" opacity="0.9"/>
  <circle cx="95" cy="45" r="1.9" fill="#0ee0c8" opacity="0.85"/>
  <circle cx="25" cy="50" r="2.1" fill="#0ee0c8" opacity="0.9"/>
  <circle cx="40" cy="65" r="1.8" fill="#0ee0c8" opacity="0.85"/>
  <circle cx="55" cy="55" r="2" fill="#0ee0c8" opacity="0.9"/>
  <circle cx="70" cy="70" r="1.9" fill="#0ee0c8" opacity="0.85"/>
  <circle cx="85" cy="60" r="2.2" fill="#0ee0c8" opacity="0.95"/>
  <circle cx="30" cy="80" r="1.8" fill="#0ee0c8" opacity="0.85"/>
  <circle cx="45" cy="90" r="2" fill="#0ee0c8" opacity="0.9"/>
  <circle cx="60" cy="85" r="1.9" fill="#0ee0c8" opacity="0.85"/>
  <circle cx="75" cy="95" r="2.1" fill="#0ee0c8" opacity="0.9"/>
  <circle cx="90" cy="85" r="1.8" fill="#0ee0c8" opacity="0.85"/>
  
  <!-- Líneas de conexión -->
  <line x1="20" y1="20" x2="35" y2="35" stroke="#0ee0c8" stroke-width="0.8" opacity="0.4"/>
  <line x1="35" y1="35" x2="50" y2="25" stroke="#0ee0c8" stroke-width="0.8" opacity="0.4"/>
  <line x1="50" y1="25" x2="65" y2="40" stroke="#0ee0c8" stroke-width="0.8" opacity="0.4"/>
  <line x1="65" y1="40" x2="80" y2="30" stroke="#0ee0c8" stroke-width="0.8" opacity="0.4"/>
  <line x1="80" y1="30" x2="95" y2="45" stroke="#0ee0c8" stroke-width="0.8" opacity="0.4"/>
  <line x1="25" y1="50" x2="40" y2="65" stroke="#0ee0c8" stroke-width="0.8" opacity="0.4"/>
  <line x1="40" y1="65" x2="55" y2="55" stroke="#0ee0c8" stroke-width="0.8" opacity="0.4"/>
  <line x1="55" y1="55" x2="70" y2="70" stroke="#0ee0c8" stroke-width="0.8" opacity="0.4"/>
  <line x1="70" y1="70" x2="85" y2="60" stroke="#0ee0c8" stroke-width="0.8" opacity="0.4"/>
  <line x1="30" y1="80" x2="45" y2="90" stroke="#0ee0c8" stroke-width="0.8" opacity="0.4"/>
  <line x1="45" y1="90" x2="60" y2="85" stroke="#0ee0c8" stroke-width="0.8" opacity="0.4"/>
  <line x1="60" y1="85" x2="75" y2="95" stroke="#0ee0c8" stroke-width="0.8" opacity="0.4"/>
  <line x1="75" y1="95" x2="90" y2="85" stroke="#0ee0c8" stroke-width="0.8" opacity="0.4"/>
  
  <!-- Conexiones diagonales -->
  <line x1="20" y1="20" x2="50" y2="25" stroke="#0ee0c8" stroke-width="0.8" opacity="0.3"/>
  <line x1="35" y1="35" x2="65" y2="40" stroke="#0ee0c8" stroke-width="0.8" opacity="0.3"/>
  <line x1="50" y1="25" x2="80" y2="30" stroke="#0ee0c8" stroke-width="0.8" opacity="0.3"/>
  <line x1="65" y1="40" x2="95" y2="45" stroke="#0ee0c8" stroke-width="0.8" opacity="0.3"/>
  <line x1="25" y1="50" x2="55" y2="55" stroke="#0ee0c8" stroke-width="0.8" opacity="0.3"/>
  <line x1="40" y1="65" x2="70" y2="70" stroke="#0ee0c8" stroke-width="0.8" opacity="0.3"/>
  <line x1="55" y1="55" x2="85" y2="60" stroke="#0ee0c8" stroke-width="0.8" opacity="0.3"/>
  <line x1="30" y1="80" x2="60" y2="85" stroke="#0ee0c8" stroke-width="0.8" opacity="0.3"/>
  <line x1="45" y1="90" x2="75" y2="95" stroke="#0ee0c8" stroke-width="0.8" opacity="0.3"/>
</svg> 