<svg width="1684" height="346" viewBox="0 0 1684 346" fill="none" xmlns="http://www.w3.org/2000/svg">
<g clip-path="url(#clip0_170_18796)">
<path d="M296.489 254.752C288.104 259.031 215.271 273.683 159.937 258.681C118.6 247.442 63.4641 215.35 45.1342 204.274C41.7814 202.248 41.0331 197.78 43.4599 194.705L111.459 108.536C114.343 104.882 120.034 105.232 122.517 109.169C133.529 126.634 161.405 168.045 194.609 196.22C239.151 234.037 275.139 244.653 296.737 247.11C299.407 247.414 304.873 250.473 296.489 254.752Z" fill="#0EE0C8"/>
<path d="M276.858 224.738C269.963 223.222 220.793 197.01 195.887 161.958C177.956 136.686 161.833 94.0631 155.918 77.4746C154.602 73.7848 156.858 69.851 160.685 69.0174L236.966 52.4048C241.515 51.4143 245.695 55.3067 245.145 59.929C243.171 76.5158 240.201 111.725 245.729 142.295C253.513 185.422 269.303 208.716 280.643 220.429C282.045 221.877 283.754 226.254 276.858 224.738Z" fill="#0EE0C8"/>
<path d="M284.646 204.796C281.492 201.082 265.434 166.138 266.399 136.477C267.069 116.334 275.059 88.3961 279.059 75.5497C280.223 71.8095 284.406 70.0211 287.957 71.675L332.015 92.1944C336.235 94.1596 337.206 99.8044 334.011 103.189C325.498 112.206 310.951 128.93 301.994 146.502C288.25 173.445 287.19 192.838 288.525 204.01C288.69 205.391 287.8 208.509 284.646 204.796Z" fill="#0EE0C8"/>
<path d="M302.909 193.827C302.777 191.008 307.78 169.305 318.718 156.048C325.777 147.504 338.349 138.073 345.062 133.312C347.458 131.613 350.757 132.469 352.108 135.078L363.709 157.491C365.314 160.592 363.293 164.396 359.851 164.98C352.57 166.214 341.058 168.71 331.49 173.239C315.655 180.729 308.307 189.245 304.965 194.84C304.552 195.531 303.041 196.646 302.909 193.827Z" fill="#0EE0C8"/>
<path d="M458.562 242.114C448.514 242.114 439.527 239.637 431.602 234.684C423.818 229.731 417.662 223.15 413.133 214.942C408.604 206.592 406.34 197.393 406.34 187.345C406.34 177.438 408.746 168.381 413.557 160.172C418.511 151.823 425.162 145.242 433.512 140.43C441.862 135.477 451.273 133 461.746 133C472.219 133 481.63 135.406 489.98 140.218C498.329 144.888 504.91 151.327 509.722 159.536C514.675 167.744 517.152 177.014 517.152 187.345V239.566H497.197V200.719L504.415 195.199C504.415 203.974 502.434 211.899 498.471 218.975C494.65 226.051 489.272 231.712 482.337 235.958C475.544 240.062 467.619 242.114 458.562 242.114ZM461.746 222.159C468.256 222.159 474.129 220.602 479.365 217.489C484.602 214.375 488.706 210.201 491.678 204.964C494.65 199.586 496.136 193.784 496.136 187.557C496.136 181.188 494.65 175.386 491.678 170.15C488.706 164.913 484.602 160.738 479.365 157.625C474.129 154.37 468.256 152.742 461.746 152.742C455.236 152.742 449.363 154.37 444.126 157.625C439.032 160.738 434.927 164.913 431.814 170.15C428.842 175.386 427.356 181.188 427.356 187.557C427.356 193.784 428.842 199.586 431.814 204.964C434.927 210.201 439.032 214.375 444.126 217.489C449.363 220.602 455.236 222.159 461.746 222.159Z" fill="#334155"/>
<path d="M543.011 87.7837H564.027V239.566H543.011V87.7837Z" fill="#334155"/>
<path d="M638.384 241.902C627.911 241.902 618.5 239.566 610.15 234.896C601.801 230.084 595.22 223.574 590.408 215.366C585.596 207.016 583.19 197.534 583.19 186.92C583.19 177.014 585.384 167.956 589.771 159.748C594.158 151.398 600.315 144.817 608.24 140.005C616.165 135.052 625.364 132.576 635.837 132.576C646.309 132.576 655.296 134.911 662.797 139.581C670.439 144.11 676.312 150.337 680.416 158.262C684.662 166.046 686.785 174.749 686.785 184.373V192.864H599.536L603.357 184.373C602.933 191.732 604.136 198.313 606.966 204.115C609.797 209.918 613.901 214.588 619.279 218.126C624.656 221.522 630.954 223.221 638.172 223.221C644.682 223.221 650.555 221.805 655.791 218.975C661.169 216.145 665.415 211.899 668.528 206.238L684.662 214.517C680.133 223.433 673.835 230.226 665.769 234.896C657.702 239.566 648.574 241.902 638.384 241.902ZM604.419 179.278H665.769C665.486 173.759 664 168.876 661.311 164.63C658.763 160.385 655.225 157.13 650.697 154.865C646.309 152.601 641.285 151.469 635.624 151.469C629.822 151.469 624.656 152.672 620.128 155.078C615.74 157.483 612.202 160.809 609.514 165.055C606.966 169.301 605.268 174.042 604.419 179.278Z" fill="#334155"/>
<path d="M750.299 289.878C739.119 289.878 729.071 287.472 720.155 282.66C711.239 277.848 704.375 270.843 699.563 261.644L717.183 252.091C720.155 257.752 724.471 262.21 730.132 265.465C735.793 268.862 742.374 270.56 749.874 270.56C757.234 270.56 763.602 268.862 768.98 265.465C774.499 262.21 778.816 257.54 781.929 251.454C785.043 245.51 786.599 238.505 786.599 230.438V208.573L791.907 203.691C791.907 209.918 790.208 215.932 786.812 221.735C783.557 227.396 778.745 232.066 772.376 235.745C766.149 239.283 758.578 241.052 749.662 241.052C739.897 241.052 730.981 238.717 722.914 234.047C714.989 229.235 708.621 222.796 703.809 214.729C699.139 206.521 696.804 197.322 696.804 187.132C696.804 177.226 699.209 168.168 704.021 159.96C708.974 151.752 715.626 145.242 723.976 140.43C732.326 135.477 741.737 133 752.21 133C762.682 133 772.093 135.406 780.443 140.218C788.793 144.888 795.374 151.327 800.186 159.536C805.139 167.744 807.616 177.014 807.616 187.345V230.226C807.616 242.255 805.139 252.728 800.186 261.644C795.232 270.701 788.439 277.636 779.806 282.448C771.174 287.401 761.338 289.878 750.299 289.878ZM751.997 221.31C758.366 221.31 764.168 219.824 769.404 216.852C774.641 213.739 778.745 209.564 781.717 204.327C784.83 198.95 786.387 193.147 786.387 186.92C786.387 180.552 784.83 174.82 781.717 169.725C778.745 164.489 774.641 160.385 769.404 157.413C764.168 154.441 758.366 152.955 751.997 152.955C745.629 152.955 739.826 154.441 734.59 157.413C729.495 160.385 725.391 164.489 722.278 169.725C719.164 174.82 717.607 180.552 717.607 186.92C717.607 193.147 719.164 198.95 722.278 204.327C725.391 209.564 729.495 213.739 734.59 216.852C739.826 219.824 745.629 221.31 751.997 221.31Z" fill="#334155"/>
<path d="M850.245 239.566H829.229V177.58C829.229 169.088 830.785 161.517 833.899 154.865C837.154 148.214 841.824 142.977 847.91 139.156C854.137 135.335 861.779 133.425 870.836 133.425C874.233 133.425 877.488 133.778 880.601 134.486C883.856 135.052 886.828 135.972 889.517 137.246V158.05C886.97 156.493 884.21 155.361 881.238 154.653C878.408 153.945 875.577 153.592 872.747 153.592C865.812 153.592 860.293 155.856 856.189 160.385C852.226 164.772 850.245 170.787 850.245 178.429V239.566Z" fill="#334155"/>
<path d="M942.253 242.114C932.205 242.114 923.218 239.637 915.293 234.684C907.509 229.731 901.353 223.15 896.824 214.942C892.296 206.592 890.031 197.393 890.031 187.345C890.031 177.438 892.437 168.381 897.249 160.172C902.202 151.823 908.854 145.242 917.204 140.43C925.553 135.477 934.965 133 945.437 133C955.91 133 965.321 135.406 973.671 140.218C982.021 144.888 988.602 151.327 993.413 159.536C998.367 167.744 1000.84 177.014 1000.84 187.345V239.566H980.889V200.719L988.106 195.199C988.106 203.974 986.125 211.899 982.162 218.975C978.341 226.051 972.963 231.712 966.029 235.958C959.236 240.062 951.311 242.114 942.253 242.114ZM945.437 222.159C951.947 222.159 957.821 220.602 963.057 217.489C968.293 214.375 972.397 210.201 975.369 204.964C978.341 199.586 979.827 193.784 979.827 187.557C979.827 181.188 978.341 175.386 975.369 170.15C972.397 164.913 968.293 160.738 963.057 157.625C957.821 154.37 951.947 152.742 945.437 152.742C938.927 152.742 933.054 154.37 927.818 157.625C922.723 160.738 918.619 164.913 915.505 170.15C912.533 175.386 911.047 181.188 911.047 187.557C911.047 193.784 912.533 199.586 915.505 204.964C918.619 210.201 922.723 214.375 927.818 217.489C933.054 220.602 938.927 222.159 945.437 222.159Z" fill="#334155"/>
<circle cx="1026" cy="230" r="11" fill="#0EE0C8"/>
<path d="M1095.55 243.154C1086.15 243.154 1077.67 240.935 1070.09 236.496C1062.65 231.927 1056.71 225.922 1052.27 218.481C1047.97 210.909 1045.81 202.619 1045.81 193.612C1045.81 184.212 1047.97 175.792 1052.27 168.351C1056.58 160.779 1062.46 154.839 1069.9 150.531C1077.34 146.093 1085.69 143.874 1094.96 143.874C1103.32 143.874 1110.89 145.897 1117.68 149.944C1124.6 153.86 1130.08 159.148 1134.13 165.805C1138.3 172.463 1140.39 179.774 1140.39 187.737L1133.15 180.296L1133.34 102.36H1145.48V193.612C1145.48 202.881 1143.26 211.301 1138.83 218.872C1134.39 226.314 1128.38 232.253 1120.81 236.692C1113.37 241 1104.95 243.154 1095.55 243.154ZM1095.55 231.601C1102.6 231.601 1109 229.904 1114.74 226.509C1120.48 222.985 1124.99 218.35 1128.25 212.606C1131.65 206.862 1133.34 200.531 1133.34 193.612C1133.34 186.693 1131.65 180.361 1128.25 174.617C1124.99 168.743 1120.48 164.108 1114.74 160.714C1109 157.189 1102.6 155.427 1095.55 155.427C1088.5 155.427 1082.1 157.189 1076.36 160.714C1070.75 164.108 1066.24 168.743 1062.85 174.617C1059.58 180.361 1057.95 186.693 1057.95 193.612C1057.95 200.531 1059.58 206.862 1062.85 212.606C1066.24 218.35 1070.75 222.985 1076.36 226.509C1082.1 229.904 1088.5 231.601 1095.55 231.601ZM1214.96 242.958C1205.69 242.958 1197.33 240.804 1189.89 236.496C1182.45 232.058 1176.58 226.118 1172.27 218.677C1168.09 211.105 1166 202.619 1166 193.22C1166 184.082 1167.96 175.792 1171.88 168.351C1175.79 160.779 1181.28 154.774 1188.33 150.336C1195.38 145.897 1203.54 143.678 1212.8 143.678C1222.07 143.678 1230.1 145.701 1236.89 149.748C1243.68 153.795 1248.97 159.343 1252.75 166.393C1256.54 173.442 1258.43 181.471 1258.43 190.479V197.724H1174.82L1177.95 189.304C1177.3 197.136 1178.47 204.251 1181.47 210.648C1184.48 216.914 1188.85 221.94 1194.59 225.726C1200.47 229.512 1207.26 231.405 1214.96 231.405C1221.49 231.405 1227.49 230.099 1232.97 227.488C1238.59 224.747 1243.09 220.374 1246.49 214.369L1255.88 219.46C1251.58 227.293 1245.83 233.167 1238.65 237.084C1231.6 241 1223.71 242.958 1214.96 242.958ZM1178.34 187.933H1246.29C1246.16 181.275 1244.59 175.531 1241.59 170.701C1238.72 165.74 1234.8 161.954 1229.84 159.343C1224.88 156.602 1219.2 155.231 1212.8 155.231C1206.28 155.231 1200.53 156.667 1195.57 159.539C1190.61 162.411 1186.63 166.328 1183.63 171.288C1180.76 176.249 1178.99 181.797 1178.34 187.933ZM1311.96 242.762C1304 242.762 1296.82 241.065 1290.42 237.671C1284.02 234.146 1279.06 228.924 1275.54 222.006L1285.52 216.523C1288.4 222.006 1291.99 225.857 1296.29 228.076C1300.73 230.295 1305.82 231.405 1311.57 231.405C1315.88 231.405 1319.79 230.817 1323.32 229.642C1326.84 228.337 1329.65 226.509 1331.74 224.16C1333.83 221.679 1334.87 218.611 1334.87 214.956C1334.87 210.909 1333.5 207.907 1330.76 205.948C1328.02 203.86 1324.49 202.293 1320.18 201.249C1316.01 200.074 1311.5 198.964 1306.67 197.92C1301.84 196.875 1297.27 195.439 1292.96 193.612C1288.79 191.784 1285.33 189.173 1282.59 185.779C1279.85 182.385 1278.47 177.685 1278.47 171.68C1278.47 166.328 1279.91 161.628 1282.78 157.581C1285.78 153.534 1289.77 150.401 1294.73 148.182C1299.69 145.832 1305.17 144.657 1311.18 144.657C1316.4 144.657 1321.1 145.375 1325.28 146.811C1329.58 148.247 1333.37 150.336 1336.63 153.077C1339.9 155.688 1342.57 158.886 1344.66 162.672L1334.67 168.351C1332.19 163.521 1328.93 160.257 1324.88 158.56C1320.84 156.863 1316.33 156.014 1311.37 156.014C1307.85 156.014 1304.52 156.667 1301.39 157.973C1298.25 159.148 1295.64 160.91 1293.55 163.26C1291.59 165.479 1290.62 168.22 1290.62 171.484C1290.62 175.27 1291.99 178.207 1294.73 180.296C1297.47 182.254 1300.93 183.821 1305.11 184.996C1309.41 186.171 1313.98 187.28 1318.81 188.325C1323.64 189.369 1328.15 190.805 1332.32 192.633C1336.63 194.46 1340.16 197.136 1342.9 200.661C1345.64 204.055 1347.01 208.755 1347.01 214.76C1347.01 220.504 1345.38 225.465 1342.12 229.642C1338.98 233.82 1334.74 237.084 1329.39 239.433C1324.03 241.653 1318.23 242.762 1311.96 242.762ZM1373.56 146.028H1385.7V241H1373.56V146.028ZM1379.63 123.117C1378.06 123.117 1376.56 122.725 1375.12 121.942C1373.82 121.159 1372.77 120.114 1371.99 118.809C1371.21 117.373 1370.82 115.806 1370.82 114.109C1370.82 112.412 1371.21 110.911 1371.99 109.605C1372.77 108.169 1373.82 107.06 1375.12 106.276C1376.56 105.493 1378.06 105.101 1379.63 105.101C1381.32 105.101 1382.76 105.493 1383.94 106.276C1385.24 107.06 1386.29 108.169 1387.07 109.605C1387.85 110.911 1388.24 112.412 1388.24 114.109C1388.24 115.806 1387.85 117.373 1387.07 118.809C1386.29 120.114 1385.24 121.159 1383.94 121.942C1382.76 122.725 1381.32 123.117 1379.63 123.117ZM1458.68 286.822C1449.15 286.822 1440.34 284.733 1432.25 280.556C1424.28 276.509 1418.15 270.503 1413.84 262.54L1424.02 256.861C1427.42 262.866 1432.12 267.436 1438.12 270.569C1444.26 273.702 1451.05 275.268 1458.49 275.268C1466.19 275.268 1472.98 273.506 1478.85 269.981C1484.73 266.457 1489.3 261.496 1492.56 255.099C1495.95 248.702 1497.65 241.261 1497.65 232.776V207.907L1501.96 201.249C1501.96 208.429 1500.13 215.217 1496.48 221.614C1492.82 227.88 1487.73 232.971 1481.2 236.888C1474.81 240.674 1467.3 242.567 1458.68 242.567C1449.68 242.567 1441.45 240.413 1434.01 236.105C1426.7 231.666 1420.89 225.726 1416.58 218.285C1412.27 210.713 1410.12 202.358 1410.12 193.22C1410.12 184.212 1412.27 175.988 1416.58 168.547C1421.02 160.975 1426.96 154.97 1434.4 150.531C1441.97 146.093 1450.46 143.874 1459.86 143.874C1469.26 143.874 1477.68 146.093 1485.12 150.531C1492.69 154.839 1498.7 160.714 1503.13 168.155C1507.57 175.596 1509.79 183.951 1509.79 193.22V233.167C1509.79 244.003 1507.57 253.402 1503.13 261.365C1498.83 269.459 1492.82 275.725 1485.12 280.164C1477.42 284.602 1468.6 286.822 1458.68 286.822ZM1459.86 231.013C1466.91 231.013 1473.24 229.316 1478.85 225.922C1484.6 222.528 1489.17 217.959 1492.56 212.215C1495.95 206.34 1497.65 199.943 1497.65 193.024C1497.65 186.105 1495.95 179.839 1492.56 174.226C1489.17 168.482 1484.6 163.912 1478.85 160.518C1473.24 157.124 1466.91 155.427 1459.86 155.427C1452.94 155.427 1446.61 157.124 1440.86 160.518C1435.25 163.912 1430.75 168.482 1427.35 174.226C1423.96 179.839 1422.26 186.105 1422.26 193.024C1422.26 199.943 1423.96 206.34 1427.35 212.215C1430.75 217.959 1435.25 222.528 1440.86 225.922C1446.61 229.316 1452.94 231.013 1459.86 231.013ZM1582.4 155.427C1575.22 155.427 1569.15 157.189 1564.19 160.714C1559.36 164.239 1555.64 168.873 1553.03 174.617C1550.55 180.361 1549.31 186.627 1549.31 193.416V241H1537.17V192.437C1537.17 183.299 1538.93 175.074 1542.45 167.764C1546.11 160.453 1551.26 154.644 1557.92 150.336C1564.71 146.028 1572.87 143.874 1582.4 143.874C1592.19 143.874 1600.48 146.028 1607.27 150.336C1614.19 154.513 1619.47 160.257 1623.13 167.568C1626.79 174.878 1628.61 183.103 1628.61 192.241V241H1616.47V193.612C1616.47 186.823 1615.17 180.557 1612.56 174.813C1609.94 168.938 1606.09 164.239 1601 160.714C1596.04 157.189 1589.84 155.427 1582.4 155.427Z" fill="#64748B"/>
</g>
<defs>
<clipPath id="clip0_170_18796">
<rect width="1684" height="346" fill="white"/>
</clipPath>
</defs>
</svg>
